<?xml version="1.0" encoding="UTF-8"?>
<svg version="1.1" viewBox="0 0 300 150" xmlns="http://www.w3.org/2000/svg">
 <g transform="translate(6.0761 -16.164)">
  <path class="fil0" d="m86.1 66.657c37.364 0 67.836 14.471 67.836 32.214 0 17.743-30.472 32.214-67.836 32.214-37.364 0-67.836-14.471-67.836-32.214 0-17.743 30.472-32.214 67.836-32.214z" style="fill-rule:evenodd;fill:#fff;stroke-width:.21114"/>
  <path class="fil1" d="m103 69.68c13.663 1.6686 25.603 5.3098 34.268 10.212-1.1009 0.28983-6.9626 1.7761-16.341 3.134-4.0999-5.8077-10.377-10.499-17.928-13.346zm15.668 13.661c-8.5354 1.1443-19.601 2.1171-32.41 2.0735 0 0-15.505 0.29188-32.843-1.9132 6.6324-8.8673 18.809-14.832 32.687-14.832 13.793 0 25.907 5.8925 32.566 14.672zm-67.515-0.14053c-5.5097-0.76528-11.143-1.7904-16.471-3.164 8.687-4.9753 20.725-8.6718 34.519-10.357-7.6256 2.8764-13.953 7.6325-18.05 13.521zm88.335-1.9773c7.4406 4.7173 11.991 10.451 12.433 16.648h-25.818c-0.17639-4.6293-1.5741-9.0187-3.9454-12.963 5.8624-0.87801 11.818-2.0687 17.332-3.6846zm-15.415 16.648h-75.945c0.18459-4.4857 1.6099-8.7294 4.0117-12.52 8.7847 1.1732 20.251 2.1086 34.118 1.9798 0 0 16.135 0.30844 33.723-2.1105 2.4516 3.8238 3.9068 8.1137 4.0934 12.651zm-77.975 0h-25.818c0.43447-6.0959 4.8432-11.744 12.069-16.417 1.9287 0.56504 7.9482 2.1931 17.613 3.5945-2.3202 3.9086-3.6886 8.2484-3.8628 12.823zm105.82 2.016c-0.45276 6.1949-5.0114 11.926-12.458 16.64-5.5106-1.6131-11.461-2.8023-17.318-3.6789 2.3749-3.9439 3.7773-8.3318 3.9578-12.961h25.82zm-31.952 12.649c-17.582-2.4167-33.709-2.1079-33.709-2.1079-13.86-0.12868-25.32 0.80525-34.104 1.9775-2.406-3.7894-3.8352-8.0322-4.0246-12.518h75.945c-0.19147 4.5368-1.6503 8.8257-4.1065 12.648zm-69.991 0.17215c-9.6268 1.3953-15.639 3.0162-17.599 3.5888-7.2316-4.6726-11.649-10.318-12.094-16.412h25.818c0.17859 4.5742 1.5508 8.9129 3.8749 12.82zm87.263 5.1504c-8.664 4.894-20.591 8.528-34.237 10.195 7.5405-2.8441 13.811-7.5266 17.911-13.324 9.3004 1.3457 15.147 2.8189 16.327 3.1287zm-68.036 10.194c-13.779-1.6828-25.804-5.3736-34.488-10.34 5.3239-1.371 10.952-2.3946 16.456-3.1587 4.097 5.8775 10.417 10.625 18.032 13.498zm-15.77-13.799c17.331-2.2028 32.826-1.9104 32.826-1.9104 12.8-0.0436 23.859 0.92763 32.393 2.0707-6.6619 8.767-18.768 14.65-32.55 14.65-13.865 0-26.034-5.9548-32.67-14.81z" style="fill-rule:evenodd;fill:#0087cf;stroke-width:.21114"/>
  <path d="m118.77 51.243-32.383 26.004v-26.004h-0.61776v26.004l-32.336-25.968v0.83466l32.645 26.217 32.693-26.163z" style="fill-rule:evenodd;fill:#1f1a17;stroke-width:.21114"/>
  <path d="m118.77 53.475-32.693 26.253-32.645-26.217v0.83466l32.647 26.215 32.691-26.16z" style="fill-rule:evenodd;fill:#1f1a17;stroke-width:.21114"/>
  <path d="m118.77 55.709-32.693 26.253-32.645-26.215v0.83466l32.645 26.215 32.693-26.163z" style="fill-rule:evenodd;fill:#1f1a17;stroke-width:.21114"/>
  <path d="m118.77 60.97-32.693 26.302-32.645-26.266v4.5775l32.645 26.059 32.693-26.057z" style="fill-rule:evenodd;fill:#1f1a17;stroke-width:.21114"/>
  <path d="m41.308 67.806 29.097 24.167v38.236h8.8346v-40.083l-28.027-22.322z" style="fill-rule:evenodd;fill:#1f1a17;stroke-width:.21114"/>
  <path d="m120.99 67.806-28.027 22.322v40.081h8.8342v-38.236l29.097-24.169z" style="fill-rule:evenodd;fill:#1f1a17;stroke-width:.21114"/>
  <path d="m81.689 93.77v36.439h8.8213v-36.439z" style="fill-rule:evenodd;fill:#1f1a17;stroke-width:.21114"/>
  <g transform="matrix(1.2509 0 0 1.2509 107.23 -59.76)">
   <path d="m40.213 113.74v0.56169h89.583v-0.56169z" style="fill-rule:evenodd;fill:#1f1a17;stroke-width:.21114"/>
   <path d="m40.213 126.43v0.56168h89.583v-0.56164z" style="fill-rule:evenodd;fill:#1f1a17;stroke-width:.21114"/>
   <path d="m123.7 116.16v1e-3c-1.8008 0-3.2391 0.40146-4.3128 1.2057-1.0733 0.80247-1.6121 1.783-1.6121 2.9382 0 1.3164 0.49044 2.359 1.4646 3.1273 0.97724 0.77012 2.3971 1.1528 4.2621 1.1528 2.0028 0 3.5533-0.38128 4.6494-1.1438 1.0927-0.76456 1.6402-1.8086 1.6402-3.1363 0-1.3223-0.52489-2.3424-1.576-3.0632-1.0509-0.72094-2.5573-1.0818-4.5154-1.0818zm-35.676 0.0236-7.1902 5.6017v-5.4745h-2.4418v8.263h1.0346l7.1902-5.6017v5.4745h2.4418v-8.263zm-44.996 0.1272-2.8189 8.1358h2.3888l1.5108-4.3803 2.838 4.4918h0.88146l2.8189-4.4918 1.4421 4.3803h2.408l-2.8583-8.1358h-1.3081l-2.9528 5.4858-3.0407-5.4858zm18.998 0v8.1358h2.4609v-6.8626h6.0914v-1.2732zm37.482 0-2.7682 8.1358h2.3449l1.4849-4.3803 2.7885 4.4918h0.86458l2.7682-4.4918 1.4173 4.3803h2.3641l-2.8076-8.1358h-1.2845l-2.8988 5.4858-2.9878-5.4858zm24.192 1.1348c2.3713 0 3.5574 0.95291 3.5574 2.8594 0 0.98632-0.32039 1.7312-0.96139 2.2357-0.64071 0.50459-1.5734 0.75651-2.7941 0.75651-1.0253 0-1.814-0.25237-2.3652-0.75313-0.55099-0.50269-0.8263-1.2489-0.8263-2.2391 0-0.87843 0.29105-1.5742 0.86796-2.0883 0.57996-0.51599 1.4196-0.77114 2.5217-0.77114zm-73.281 13.356c-0.88788 0-1.5974 0.33517-2.1277 1.0042-0.52718 0.669-0.79028 1.4844-0.79028 2.4463 0 1.0944 0.23954 1.9615 0.72048 2.6027 0.48094 0.63817 1.1808 0.95802 2.0995 0.95802 0.98654 0 1.7503-0.31843 2.2898-0.95351s0.80942-1.5036 0.80942-2.6072c0-1.1006-0.25884-1.9506-0.77677-2.5487-0.51793-0.60117-1.2595-0.90172-2.2245-0.90172zm50.156 0c-0.88788 0-1.5974 0.33517-2.1277 1.0042-0.52718 0.669-0.79028 1.4844-0.79028 2.4463 0 1.0944 0.24066 1.9615 0.7216 2.6027 0.48094 0.63817 1.1808 0.95802 2.0995 0.95802 0.98653 0 1.7491-0.31843 2.2886-0.95351s0.80942-1.5036 0.80942-2.6072c0-1.1006-0.25884-1.9506-0.77677-2.5487-0.51793-0.60117-1.2595-0.90172-2.2245-0.90172zm19.13 0c-0.88788 0-1.5974 0.33517-2.1277 1.0042-0.52718 0.669-0.79027 1.4844-0.79027 2.4463 0 1.0944 0.24067 1.9615 0.7216 2.6027 0.48094 0.63817 1.1808 0.95802 2.0995 0.95802 0.98654 0 1.7492-0.31843 2.2886-0.95351 0.53952-0.63508 0.80942-1.5036 0.80942-2.6072 0-1.1006-0.25884-1.9506-0.77677-2.5487-0.51793-0.60117-1.2595-0.90172-2.2245-0.90172zm-46.766 0.0191-3.5427 4.6606v-4.5548h-1.2023v6.8761h0.50884l3.5427-4.6606v4.5548h1.2023v-6.8761zm37.025 0.036c-0.2158 0-0.85466 0.0236-1.9183 0.0698v6.7703h2.0714c0.73683 0 1.3379-0.18079 1.8035-0.54149s0.69797-0.84914 0.69797-1.4657c0-0.92179-0.42033-1.5272-1.262-1.817 0.57034-0.30521 0.85557-0.72951 0.85557-1.2721 0-0.55801-0.20037-0.98799-0.60115-1.2901-0.3977-0.30213-0.94715-0.45368-1.647-0.45368zm-49.976 0.0698c-0.32987 1.6617-0.68351 2.921-1.0627 3.778-0.3792 0.85397-0.75467 1.5204-1.1246 1.9982h-0.46156v2.936h1.0582v-1.9419h4.4355v1.9419h1.0582v-2.936h-0.75764v-5.7762zm18.27 0v6.7703h1.2023v-3.0474h2.6962v3.0474h1.1843v-6.7703h-1.1843v2.65h-2.6962v-2.65zm9.8796 0v6.7703h4.458v1.9419h1.0818v-2.9922h-0.77677v-5.72h-1.1832v5.72h-2.3866v-5.72zm21.799 0.93438c0.71525 0 1.0728 0.26168 1.0728 0.78577 0 0.58885-0.39223 0.88372-1.1753 0.88372-0.15106 0-0.34605-7e-3 -0.58652-0.0191v-1.6177c0.27439-0.0216 0.50399-0.0326 0.68896-0.0326zm-59.517 9e-3c1.1684 0 1.7528 0.79438 1.7528 2.3821 0 0.82006-0.15978 1.4393-0.47732 1.8586-0.31446 0.41928-0.77225 0.6293-1.3734 0.6293-0.5056 0-0.89386-0.2086-1.1652-0.62479-0.2713-0.41928-0.4064-1.04-0.4064-1.8631 0-0.73065 0.1419-1.3108 0.42553-1.7393 0.28671-0.42853 0.70136-0.64281 1.244-0.64281zm50.156 0c1.1684 0 1.7528 0.79438 1.7528 2.3821 0 0.82006-0.15865 1.4393-0.4762 1.8586-0.31445 0.41928-0.77224 0.6293-1.3734 0.6293-0.50561 0-0.89498-0.2086-1.1663-0.62479-0.2713-0.41928-0.4064-1.04-0.4064-1.8631 0-0.73065 0.14191-1.3108 0.42553-1.7393 0.28672-0.42853 0.70137-0.64281 1.244-0.64281zm19.13 0c1.1684 0 1.7528 0.79438 1.7528 2.3821 0 0.82006-0.15866 1.4393-0.4762 1.8586-0.31446 0.41928-0.77225 0.6293-1.3734 0.6293-0.5056 0-0.89498-0.2086-1.1663-0.62479-0.27129-0.41928-0.40639-1.04-0.40639-1.8631 0-0.73065 0.1419-1.3108 0.42553-1.7393 0.28671-0.42853 0.70137-0.64281 1.244-0.64281zm-58.884 0.0417h1.1561v4.7912h-2.8954c0.37304-0.50253 0.71673-1.1871 1.0312-2.0534s0.55087-1.779 0.7081-2.7378zm49.032 2.5251c0.56726 0 0.95978 0.0891 1.1787 0.26792 0.22196 0.17573 0.33322 0.45386 0.33322 0.83306 0 0.44703-0.128 0.7561-0.38389 0.92874-0.25588 0.16957-0.63561 0.25443-1.1381 0.25443-0.15415 0-0.35197-0.01-0.59553-0.0281v-2.2425c0.18807-9e-3 0.38985-0.0135 0.60566-0.0135z" style="fill:#00458e;stroke-width:.21114"/>
  </g>
  <polygon class="fil3 str0" transform="matrix(1.4638 0 0 1.4638 -71.971 6.9914)" points="131.96 42.123 113.17 57.09 113.17 83.581 118.24 83.581 118.24 57.735 137.04 42.123" style="fill-rule:evenodd;fill:#c4261d;stroke-width:.1764;stroke:#c4261d"/>
  <polygon class="fil0 str1" transform="matrix(1.4638 0 0 1.4638 -71.971 6.9914)" points="84.01 42.123 102.8 57.09 102.8 83.581 97.727 83.581 97.727 57.735 78.934 42.123" style="fill-rule:evenodd;fill:#fff;stroke-width:.1764;stroke:#fff"/>
  <polygon class="fil4 str2" transform="matrix(1.4638 0 0 1.4638 -71.971 6.9914)" points="110.54 83.581 110.54 59.792 105.43 59.792 105.43 83.581" style="fill-rule:evenodd;fill:#00458e;stroke-width:.1764;stroke:#00458e"/>
 </g>
</svg>
