<?xml version="1.0" encoding="UTF-8"?>
<svg version="1.1" viewBox="0 0 170 170" xmlns="http://www.w3.org/2000/svg">
 <g transform="matrix(.57639 0 0 .57639 -1.4583 42.929)">
  <path class="fil0" d="m150 4.9442c64.824 0 117.69 25.106 117.69 55.889 0 30.784-52.867 55.889-117.69 55.889-64.824 0-117.69-25.106-117.69-55.889 0-30.783 52.867-55.889 117.69-55.889z" style="fill-rule:evenodd;fill:#fff;stroke-width:.36632"/>
  <path class="fil1" d="m179.32 10.19c23.704 2.895 44.42 9.2122 59.454 17.718-1.9101 0.50285-12.08 3.0814-28.351 5.4373-7.1132-10.076-18.004-18.215-31.104-23.155zm27.183 23.702c-14.808 1.9852-34.006 3.6731-56.23 3.5974 0 0-26.9 0.5064-56.981-3.3193 11.507-15.384 32.633-25.733 56.71-25.733 23.93 0 44.947 10.223 56.501 25.455zm-117.13-0.24381c-9.5591-1.3277-19.332-3.1062-28.576-5.4893 15.072-8.632 35.956-15.045 59.89-17.969-13.23 4.9904-24.208 13.242-31.315 23.459zm153.26-3.4306c12.909 8.1843 20.804 18.132 21.57 28.883h-44.794c-0.30603-8.0316-2.7309-15.647-6.8451-22.491 10.171-1.5233 20.503-3.5891 30.069-6.3927zm-26.744 28.883h-131.76c0.32025-7.7825 2.7931-15.145 6.9601-21.722 15.241 2.0355 35.134 3.6584 59.194 3.4349 0 0 27.994 0.53512 58.509-3.6617 4.2533 6.6341 6.778 14.077 7.1018 21.948zm-135.28 0h-44.794c0.75378-10.576 8.4026-20.376 20.94-28.483 3.3463 0.98031 13.79 3.805 30.557 6.2362-4.0255 6.7813-6.3996 14.311-6.7018 22.247zm183.59 3.4976c-0.78553 10.748-8.6946 20.69-21.614 28.869-9.5606-2.7987-19.884-4.8618-30.046-6.3828 4.1204-6.8425 6.5535-14.455 6.8667-22.487h44.797zm-55.435 21.946c-30.504-4.1929-58.483-3.6571-58.483-3.6571-24.047-0.22324-43.929 1.3971-59.168 3.4308-4.1742-6.5743-6.6538-13.936-6.9824-21.718h131.76c-0.33219 7.8711-2.8632 15.312-7.1246 21.944zm-121.43 0.29866c-16.702 2.4208-27.133 5.2329-30.534 6.2263-12.546-8.1067-20.21-17.902-20.982-28.474h44.794c0.30984 7.936 2.6905 15.463 6.7227 22.243zm151.4 8.9356c-15.032 8.4909-35.724 14.796-59.399 17.688 13.082-4.9343 23.961-13.058 31.074-23.116 16.136 2.3347 26.279 4.8907 28.326 5.4281zm-118.04 17.686c-23.906-2.9196-44.768-9.3228-59.835-17.939 9.2368-2.3787 19.001-4.1544 28.55-5.4802 7.1081 10.197 18.073 18.434 31.285 23.418zm-27.359-23.94c30.069-3.8218 56.952-3.3145 56.952-3.3145 22.207-0.0757 41.394 1.6094 56.201 3.5926-11.558 15.21-32.562 25.416-56.472 25.416-24.054 0-45.167-10.331-56.681-25.694z" style="fill-rule:evenodd;fill:#0087cf;stroke-width:.36632"/>
  <path d="m206.68-21.797-56.182 45.116v-45.116h-1.0718v45.116l-56.102-45.054v1.4481l56.637 45.486 56.721-45.391zm0 3.8727-56.721 45.548-56.637-45.486v1.4481l56.64 45.482 56.717-45.387zm0 3.8749-56.721 45.548-56.637-45.482v1.4481l56.637 45.482 56.721-45.391zm0 9.1272-56.721 45.632-56.637-45.57v7.9418l56.637 45.211 56.721-45.208zm-134.39 11.861 50.483 41.929v66.337h15.328v-69.542l-48.625-38.727zm138.24 0-48.625 38.727v69.539h15.327v-66.337l50.483-41.933zm-68.183 45.046v63.22h15.304v-63.22zm-70.051 70.865v0.97449h155.42v-0.97449zm0 22.018v0.97448h155.42v-0.97441z" style="fill-rule:evenodd;fill:#1f1a17;stroke-width:.36632"/>
  <path d="m217.15 127.04v2e-3c-3.1243 0-5.6197 0.69652-7.4824 2.0918-1.8621 1.3922-2.7969 3.0934-2.7969 5.0977 0 2.2839 0.85089 4.0927 2.541 5.4258 1.6955 1.3361 4.1588 2 7.3945 2 3.4748 0 6.1648-0.66149 8.0664-1.9844 1.8958-1.3265 2.8457-3.1378 2.8457-5.4414 0-2.2941-0.91066-4.0639-2.7344-5.3144-1.8232-1.2508-4.4367-1.877-7.834-1.877zm-61.896 0.041-12.475 9.7188v-9.498h-4.2363v14.336h1.7949l12.475-9.7188v9.498h4.2363v-14.336zm-78.066 0.2207-4.8906 14.115h4.1445l2.6211-7.5996 4.9238 7.793h1.5293l4.8906-7.793 2.502 7.5996h4.1777l-4.959-14.115h-2.2695l-5.123 9.5176-5.2754-9.5176zm32.961 0v14.115h4.2695v-11.906h10.568v-2.209zm65.029 0-4.8027 14.115h4.0684l2.5762-7.5996 4.8379 7.793h1.5l4.8027-7.793 2.459 7.5996h4.1016l-4.8711-14.115h-2.2285l-5.0293 9.5176-5.1836-9.5176zm41.973 1.9688c4.1141 0 6.1719 1.6532 6.1719 4.9609 0 1.7112-0.55586 3.0035-1.668 3.8789-1.1116 0.87543-2.7297 1.3125-4.8477 1.3125-1.7788 0-3.1471-0.43784-4.1035-1.3066-0.95595-0.87214-1.4336-2.1668-1.4336-3.8848 0-1.524 0.50496-2.7311 1.5059-3.623 1.0062-0.89522 2.463-1.3379 4.375-1.3379zm-127.14 23.172c-1.5404 0-2.7714 0.58151-3.6914 1.7422-0.91463 1.1607-1.3711 2.5753-1.3711 4.2441 0 1.8988 0.4156 3.4031 1.25 4.5156 0.8344 1.1072 2.0487 1.6621 3.6426 1.6621 1.7116 0 3.0366-0.55246 3.9727-1.6543 0.93603-1.1018 1.4043-2.6086 1.4043-4.5234 0-1.9095-0.44907-3.3842-1.3477-4.4219-0.89859-1.043-2.1852-1.5644-3.8594-1.5644zm87.018 0c-1.5404 0-2.7714 0.58151-3.6914 1.7422-0.91463 1.1607-1.3711 2.5753-1.3711 4.2441 0 1.8988 0.41754 3.4031 1.252 4.5156 0.8344 1.1072 2.0487 1.6621 3.6426 1.6621 1.7116 0 3.0347-0.55246 3.9707-1.6543 0.93603-1.1018 1.4043-2.6086 1.4043-4.5234 0-1.9095-0.44907-3.3842-1.3477-4.4219-0.89858-1.043-2.1852-1.5644-3.8594-1.5644zm33.189 0c-1.5404 0-2.7714 0.58151-3.6914 1.7422-0.91463 1.1607-1.3711 2.5753-1.3711 4.2441 0 1.8988 0.41755 3.4031 1.252 4.5156 0.83441 1.1072 2.0487 1.6621 3.6426 1.6621 1.7116 0 3.0347-0.55246 3.9707-1.6543 0.93603-1.1018 1.4043-2.6086 1.4043-4.5234 0-1.9095-0.44907-3.3842-1.3477-4.4219-0.89858-1.043-2.1852-1.5644-3.8594-1.5644zm-81.137 0.0332-6.1465 8.0859v-7.9024h-2.0859v11.93h0.88281l6.1465-8.0859v7.9024h2.0859v-11.93zm64.236 0.0625c-0.37441 0-1.4828 0.0409-3.3281 0.12109v11.746h3.5938c1.2784 0 2.3212-0.31366 3.1289-0.93946s1.2109-1.4732 1.2109-2.543c0-1.5993-0.72925-2.6496-2.1894-3.1523 0.98951-0.52952 1.4844-1.2656 1.4844-2.207 0-0.96812-0.34763-1.7141-1.043-2.2383-0.68999-0.52418-1.6433-0.78711-2.8574-0.78711zm-86.705 0.12109c-0.57231 2.883-1.1859 5.0677-1.8438 6.5547-0.65789 1.4816-1.3093 2.6377-1.9512 3.4668h-0.80078v5.0938h1.8359v-3.3691h7.6953v3.3691h1.8359v-5.0938h-1.3145v-10.021zm31.697 0v11.746h2.0859v-5.2871h4.6777v5.2871h2.0547v-11.746h-2.0547v4.5977h-4.6777v-4.5977zm17.141 0v11.746h7.7344v3.3691h1.877v-5.1914h-1.3477v-9.9238h-2.0527v9.9238h-4.1406v-9.9238zm37.82 1.6211c1.2409 0 1.8613 0.454 1.8613 1.3633 0 1.0216-0.68049 1.5332-2.0391 1.5332-0.26209 0-0.60038-0.0118-1.0176-0.0332v-2.8066c0.47604-0.0375 0.87439-0.0566 1.1953-0.0566zm-103.26 0.0156c2.0272 0 3.041 1.3782 3.041 4.1328 0 1.4228-0.2772 2.4972-0.82812 3.2246-0.54557 0.72743-1.3398 1.0918-2.3828 1.0918-0.87719 0-1.5508-0.3619-2.0215-1.084-0.47069-0.72743-0.70508-1.8043-0.70508-3.2324 0-1.2676 0.2462-2.2741 0.73828-3.0176 0.49743-0.74348 1.2168-1.1152 2.1582-1.1152zm87.018 0c2.0272 0 3.041 1.3782 3.041 4.1328 0 1.4228-0.27525 2.4972-0.82617 3.2246-0.54557 0.72743-1.3398 1.0918-2.3828 1.0918-0.8772 0-1.5528-0.3619-2.0234-1.084-0.47069-0.72743-0.70508-1.8043-0.70508-3.2324 0-1.2676 0.2462-2.2741 0.73828-3.0176 0.49744-0.74348 1.2168-1.1152 2.1582-1.1152zm33.189 0c2.0272 0 3.041 1.3782 3.041 4.1328 0 1.4228-0.27526 2.4972-0.82618 3.2246-0.54557 0.72743-1.3398 1.0918-2.3828 1.0918-0.87719 0-1.5528-0.3619-2.0234-1.084-0.47068-0.72743-0.70507-1.8043-0.70507-3.2324 0-1.2676 0.2462-2.2741 0.73828-3.0176 0.49743-0.74348 1.2168-1.1152 2.1582-1.1152zm-102.16 0.0723h2.0059v8.3125h-5.0234c0.6472-0.87185 1.2435-2.0595 1.7891-3.5625 0.54557-1.503 0.95573-3.0866 1.2285-4.75zm85.068 4.3809c0.98417 0 1.6652 0.15461 2.0449 0.46484 0.3851 0.30488 0.57812 0.78742 0.57812 1.4453 0 0.77557-0.22207 1.3118-0.66602 1.6113-0.44394 0.29418-1.1028 0.44141-1.9746 0.44141-0.26744 0-0.61065-0.0168-1.0332-0.0488v-3.8906c0.32628-0.0161 0.67637-0.0234 1.0508-0.0234z" style="fill:#00458e;stroke-width:.36632"/>
  <polygon class="fil3 str0" transform="matrix(2.5397 0 0 2.5397 -124.24 -98.572)" points="118.24 57.735 137.04 42.123 131.96 42.123 113.17 57.09 113.17 83.581 118.24 83.581" style="fill-rule:evenodd;fill:#c4261d;stroke-width:.1764;stroke:#c4261d"/>
  <polygon class="fil0 str1" transform="matrix(2.5397 0 0 2.5397 -124.24 -98.572)" points="97.727 57.735 78.934 42.123 84.01 42.123 102.8 57.09 102.8 83.581 97.727 83.581" style="fill-rule:evenodd;fill:#fff;stroke-width:.1764;stroke:#fff"/>
  <polygon class="fil4 str2" transform="matrix(2.5397 0 0 2.5397 -124.24 -98.572)" points="110.54 83.581 110.54 59.792 105.43 59.792 105.43 83.581" style="fill-rule:evenodd;fill:#00458e;stroke-width:.1764;stroke:#00458e"/>
 </g>
</svg>
